<svg width="256" height="256" viewBox="0 0 256 256" fill="none" xmlns="http://www.w3.org/2000/svg">
<path d="M75.0817 205.66V224.127H82.3735V229.34H69V205.66H75.0817Z" fill="#64A2EE"/>
<path d="M90.3658 217.5C90.3658 218.442 90.5417 219.311 90.8933 220.107C91.245 220.902 91.7208 221.593 92.3206 222.18C92.9205 222.766 93.6135 223.227 94.3996 223.562C95.2063 223.876 96.0545 224.033 96.944 224.033C97.8335 224.033 98.6712 223.876 99.4573 223.562C100.264 223.227 100.967 222.766 101.567 222.18C102.188 221.593 102.674 220.902 103.026 220.107C103.377 219.311 103.553 218.442 103.553 217.5C103.553 216.558 103.377 215.689 103.026 214.893C102.674 214.098 102.188 213.407 101.567 212.82C100.967 212.234 100.264 211.784 99.4573 211.47C98.6712 211.135 97.8335 210.967 96.944 210.967C96.0545 210.967 95.2063 211.135 94.3996 211.47C93.6135 211.784 92.9205 212.234 92.3206 212.82C91.7208 213.407 91.245 214.098 90.8933 214.893C90.5417 215.689 90.3658 216.558 90.3658 217.5ZM84.0049 217.5C84.0049 215.741 84.3255 214.108 84.9668 212.601C85.6081 211.072 86.4976 209.742 87.6353 208.612C88.773 207.481 90.1279 206.602 91.7001 205.974C93.2929 205.325 95.0408 205 96.944 205C98.8264 205 100.564 205.325 102.157 205.974C103.75 206.602 105.115 207.481 106.253 208.612C107.411 209.742 108.311 211.072 108.952 212.601C109.593 214.108 109.914 215.741 109.914 217.5C109.914 219.259 109.593 220.902 108.952 222.431C108.311 223.938 107.411 225.258 106.253 226.388C105.115 227.519 103.75 228.409 102.157 229.058C100.564 229.686 98.8264 230 96.944 230C95.0408 230 93.2929 229.686 91.7001 229.058C90.1279 228.409 88.773 227.519 87.6353 226.388C86.4976 225.258 85.6081 223.938 84.9668 222.431C84.3255 220.902 84.0049 219.259 84.0049 217.5Z" fill="#64A2EE"/>
<path d="M119.062 217.5C119.062 218.442 119.237 219.311 119.589 220.107C119.941 220.902 120.416 221.593 121.016 222.18C121.616 222.766 122.309 223.227 123.095 223.562C123.902 223.876 124.75 224.033 125.64 224.033C126.529 224.033 127.367 223.876 128.153 223.562C128.96 223.227 129.663 222.766 130.263 222.18C130.884 221.593 131.37 220.902 131.721 220.107C132.073 219.311 132.249 218.442 132.249 217.5C132.249 216.558 132.073 215.689 131.721 214.893C131.37 214.098 130.884 213.407 130.263 212.82C129.663 212.234 128.96 211.784 128.153 211.47C127.367 211.135 126.529 210.967 125.64 210.967C124.75 210.967 123.902 211.135 123.095 211.47C122.309 211.784 121.616 212.234 121.016 212.82C120.416 213.407 119.941 214.098 119.589 214.893C119.237 215.689 119.062 216.558 119.062 217.5ZM112.701 217.5C112.701 215.741 113.021 214.108 113.662 212.601C114.304 211.072 115.193 209.742 116.331 208.612C117.469 207.481 118.824 206.602 120.396 205.974C121.989 205.325 123.737 205 125.64 205C127.522 205 129.26 205.325 130.852 205.974C132.445 206.602 133.811 207.481 134.948 208.612C136.107 209.742 137.007 211.072 137.648 212.601C138.289 214.108 138.61 215.741 138.61 217.5C138.61 219.259 138.289 220.902 137.648 222.431C137.007 223.938 136.107 225.258 134.948 226.388C133.811 227.519 132.445 228.409 130.852 229.058C129.26 229.686 127.522 230 125.64 230C123.737 230 121.989 229.686 120.396 229.058C118.824 228.409 117.469 227.519 116.331 226.388C115.193 225.258 114.304 223.938 113.662 222.431C113.021 220.902 112.701 219.259 112.701 217.5Z" fill="#64A2EE"/>
<path d="M142.451 229.34V205.66H148.533L159.765 220.138V205.66H165.816V229.34H159.765L148.533 214.862V229.34H142.451Z" fill="#64A2EE"/>
<path d="M183.505 220.546L180.775 212.663L178.044 220.546H183.505ZM185.119 225.226H176.431L175.034 229.34H168.549L177.455 205.66H184.095L193 229.34H186.515L185.119 225.226Z" fill="#64A2EE"/>
<path d="M166.781 126.39C182.659 117.489 193.391 100.498 193.391 81C193.391 52.2812 170.109 29 141.391 29C121.893 29 104.901 39.7312 96 55.6096C103.509 51.4001 112.17 49 121.391 49C150.109 49 173.391 72.2812 173.391 101C173.391 110.221 170.99 118.881 166.781 126.39Z" fill="url(#paint0_linear)"/>
<path fill-rule="evenodd" clip-rule="evenodd" d="M69 101C69 81.5022 79.7312 64.5107 95.6095 55.6096C91.4 63.1188 89 71.7791 89 81.0001C89 89.0311 90.8206 96.637 94.0717 103.427C95.8492 102.515 97.8645 102 100 102C107.18 102 113 107.82 113 115C113 117.999 111.985 120.76 110.279 122.96C118.887 129.272 129.508 133 141 133C150.221 133 158.881 130.6 166.391 126.391C157.489 142.269 140.498 153 121 153C92.2812 153 69 129.719 69 101Z" fill="url(#paint1_linear)"/>
<ellipse cx="104.861" cy="62.5801" rx="5" ry="8.5" transform="rotate(52.6276 104.861 62.5801)" fill="#B7D1F0"/>
<ellipse cx="158.496" cy="77.5924" rx="5" ry="8.5" transform="rotate(136.117 158.496 77.5924)" fill="#B7D1F0"/>
<circle cx="163.5" cy="103.5" r="5.5" fill="#B7D1F0"/>
<circle cx="70" cy="149" r="7" fill="#FFD39E"/>
<circle cx="85" cy="162" r="5" fill="#FFD39E"/>
<circle cx="187.5" cy="31.5" r="4.5" fill="#B7D1F0"/>
<circle cx="147" cy="89" r="4" fill="#B7D1F0"/>
<defs>
<linearGradient id="paint0_linear" x1="184" y1="39" x2="132.5" y2="91.5" gradientUnits="userSpaceOnUse">
<stop stop-color="#B7D1F0"/>
<stop offset="1" stop-color="#61A0EE"/>
</linearGradient>
<linearGradient id="paint1_linear" x1="81.5" y1="139.5" x2="139" y2="87.5" gradientUnits="userSpaceOnUse">
<stop stop-color="#FFE0BA"/>
<stop offset="1" stop-color="#FFEACF"/>
</linearGradient>
</defs>
</svg>
