<svg width="249" height="51" viewBox="0 0 249 51" fill="none" xmlns="http://www.w3.org/2000/svg">
<path d="M13.05 2.25201V38.708H27.62V49H0.89801V2.25201H13.05Z" fill="#5C81B4"/>
<path d="M43.5899 25.626C43.5899 27.486 43.9412 29.2013 44.6439 30.772C45.3465 32.3427 46.2972 33.7067 47.4959 34.864C48.6945 36.0213 50.0792 36.9307 51.6499 37.592C53.2619 38.212 54.9565 38.522 56.7339 38.522C58.5112 38.522 60.1852 38.212 61.7559 37.592C63.3679 36.9307 64.7732 36.0213 65.9719 34.864C67.2119 33.7067 68.1832 32.3427 68.8859 30.772C69.5885 29.2013 69.9398 27.486 69.9398 25.626C69.9398 23.766 69.5885 22.0507 68.8859 20.48C68.1832 18.9093 67.2119 17.5453 65.9719 16.388C64.7732 15.2307 63.3679 14.342 61.7559 13.722C60.1852 13.0607 58.5112 12.73 56.7339 12.73C54.9565 12.73 53.2619 13.0607 51.6499 13.722C50.0792 14.342 48.6945 15.2307 47.4959 16.388C46.2972 17.5453 45.3465 18.9093 44.6439 20.48C43.9412 22.0507 43.5899 23.766 43.5899 25.626ZM30.8799 25.626C30.8799 22.154 31.5205 18.93 32.8019 15.954C34.0832 12.9367 35.8605 10.312 38.1339 8.08001C40.4072 5.84801 43.1145 4.11201 46.2559 2.87201C49.4385 1.59068 52.9312 0.950012 56.7339 0.950012C60.4952 0.950012 63.9672 1.59068 67.1499 2.87201C70.3325 4.11201 73.0605 5.84801 75.3339 8.08001C77.6485 10.312 79.4465 12.9367 80.7279 15.954C82.0092 18.93 82.6499 22.154 82.6499 25.626C82.6499 29.098 82.0092 32.3427 80.7279 35.36C79.4465 38.336 77.6485 40.94 75.3339 43.172C73.0605 45.404 70.3325 47.1607 67.1499 48.442C63.9672 49.682 60.4952 50.302 56.7339 50.302C52.9312 50.302 49.4385 49.682 46.2559 48.442C43.1145 47.1607 40.4072 45.404 38.1339 43.172C35.8605 40.94 34.0832 38.336 32.8019 35.36C31.5205 32.3427 30.8799 29.098 30.8799 25.626Z" fill="#5C81B4"/>
<path d="M100.928 25.626C100.928 27.486 101.279 29.2013 101.982 30.772C102.684 32.3427 103.635 33.7067 104.834 34.864C106.032 36.0213 107.417 36.9307 108.988 37.592C110.6 38.212 112.294 38.522 114.072 38.522C115.849 38.522 117.523 38.212 119.094 37.592C120.706 36.9307 122.111 36.0213 123.31 34.864C124.55 33.7067 125.521 32.3427 126.224 30.772C126.926 29.2013 127.278 27.486 127.278 25.626C127.278 23.766 126.926 22.0507 126.224 20.48C125.521 18.9093 124.55 17.5453 123.31 16.388C122.111 15.2307 120.706 14.342 119.094 13.722C117.523 13.0607 115.849 12.73 114.072 12.73C112.294 12.73 110.6 13.0607 108.988 13.722C107.417 14.342 106.032 15.2307 104.834 16.388C103.635 17.5453 102.684 18.9093 101.982 20.48C101.279 22.0507 100.928 23.766 100.928 25.626ZM88.2177 25.626C88.2177 22.154 88.8584 18.93 90.1397 15.954C91.4211 12.9367 93.1984 10.312 95.4717 8.08001C97.7451 5.84801 100.452 4.11201 103.594 2.87201C106.776 1.59068 110.269 0.950012 114.072 0.950012C117.833 0.950012 121.305 1.59068 124.488 2.87201C127.67 4.11201 130.398 5.84801 132.672 8.08001C134.986 10.312 136.784 12.9367 138.066 15.954C139.347 18.93 139.988 22.154 139.988 25.626C139.988 29.098 139.347 32.3427 138.066 35.36C136.784 38.336 134.986 40.94 132.672 43.172C130.398 45.404 127.67 47.1607 124.488 48.442C121.305 49.682 117.833 50.302 114.072 50.302C110.269 50.302 106.776 49.682 103.594 48.442C100.452 47.1607 97.7451 45.404 95.4717 43.172C93.1984 40.94 91.4211 38.336 90.1397 35.36C88.8584 32.3427 88.2177 29.098 88.2177 25.626Z" fill="#5C81B4"/>
<path d="M147.664 49V2.25201H159.816L182.26 30.834V2.25201H194.35V49H182.26L159.816 20.418V49H147.664Z" fill="#5C81B4"/>
<path d="M229.695 31.64L224.239 16.078L218.783 31.64H229.695ZM232.919 40.878H215.559L212.769 49H199.811L217.605 2.25201H230.873L248.667 49H235.709L232.919 40.878Z" fill="#5C81B4"/>
</svg>
