<svg width="256" height="256" viewBox="0 0 256 256" fill="none" xmlns="http://www.w3.org/2000/svg">
<path d="M101.8 86L157.67 137.592V236.233L47 236.5V137.86L101.8 86Z" fill="url(#paint0_linear)"/>
<path d="M152.323 86H101.8L157.67 137.592H207.925L152.323 86Z" fill="#B7D1F0"/>
<rect x="157.67" y="137.592" width="50.2558" height="98.9076" fill="#A4C8F5"/>
<rect x="65.1776" y="137.592" width="20.8508" height="45.444" fill="#5C98E1"/>
<rect x="67.8508" y="137.592" width="18.1776" height="45.444" fill="#FFE1BA"/>
<path d="M67.8508 137.592H86.0285L67.8508 183.036V137.592Z" fill="#FFEACF"/>
<rect x="112.226" y="137.592" width="18.1776" height="45.444" fill="#5C98E1"/>
<rect x="114.899" y="137.592" width="18.1776" height="45.444" fill="#FFE1BA"/>
<path d="M114.899 137.592H133.076L114.899 183.036V137.592Z" fill="#FFEACF"/>
<rect x="65.1776" y="191.056" width="20.8508" height="45.444" fill="#5C98E1"/>
<rect x="67.8508" y="191.056" width="18.1776" height="45.444" fill="#FFE1BA"/>
<path d="M67.8508 191.056H86.0285L67.8508 236.5V191.056Z" fill="#FFEACF"/>
<rect x="112.226" y="191.056" width="18.1776" height="45.444" fill="#5C98E1"/>
<rect x="114.899" y="191.056" width="18.1776" height="45.444" fill="#FFE1BA"/>
<path d="M114.899 191.056H133.076L114.899 236.5V191.056Z" fill="#FFEACF"/>
<circle cx="101.533" cy="114.068" r="8.01954" fill="#5C98E1"/>
<circle cx="103.137" cy="114.068" r="6.41563" fill="#FFE0BA"/>
<circle cx="105.008" cy="113.801" r="4.5444" fill="#FFEACF"/>
<rect x="183.332" y="163.255" width="8.55417" height="12.8313" fill="#5C98E1"/>
<rect x="182.263" y="163.255" width="8.55417" height="12.8313" fill="#FFE0BA"/>
<path d="M184.936 163.255H190.817V176.086L184.936 163.255Z" fill="#FFEACF"/>
<rect x="183.332" y="181.432" width="8.55417" height="12.8313" fill="#5C98E1"/>
<rect x="182.263" y="181.432" width="8.55417" height="12.8313" fill="#FFE0BA"/>
<path d="M184.936 181.432H190.817V194.264L184.936 181.432Z" fill="#FFEACF"/>
<rect x="183.332" y="199.61" width="8.55417" height="12.8313" fill="#5C98E1"/>
<rect x="182.263" y="199.61" width="8.55417" height="12.8313" fill="#FFE0BA"/>
<path d="M184.936 199.61H190.817V212.441L184.936 199.61Z" fill="#FFEACF"/>
<path fill-rule="evenodd" clip-rule="evenodd" d="M198.601 61.9244L178.448 82.2183C177.105 83.5619 177.105 85.6832 178.448 87.0267L179.155 87.7338C180.499 89.0773 182.62 89.0773 183.964 87.7338L196.126 75.5715C196.621 75.218 198.106 66.0963 198.106 66.0963C198.318 65.0357 198.884 64.0457 199.661 63.2679C199.803 63.1265 199.803 62.985 199.661 62.8436C199.454 62.6366 199.361 62.4674 199.242 62.2529L199.242 62.2528C199.199 62.1743 199.152 62.0898 199.096 61.9951C199.096 61.9951 198.954 61.5708 198.601 61.9244ZM217.056 66.662C217.268 65.7428 216.985 64.7528 216.349 64.1164C215.996 63.7629 215.571 63.48 215.006 63.3386L213.945 63.1265C213.238 62.9851 212.531 63.1265 211.894 63.48C211.258 63.8336 210.834 64.5407 210.692 65.2478L207.44 80.3799C207.086 81.8648 208.076 83.279 209.561 83.6326L210.622 83.8447C212.106 84.1983 213.521 83.2083 213.874 81.7234L217.056 66.662ZM206.591 65.5306C207.227 66.167 207.51 67.157 207.298 68.0762L204.753 79.6728C204.611 80.3799 204.187 81.087 203.55 81.4405C202.914 81.7941 202.207 81.9355 201.5 81.7941L200.439 81.582C198.884 81.2991 197.964 79.8142 198.318 78.3293L200.934 66.662C201.217 65.1064 202.702 64.1871 204.187 64.5407L205.247 64.7528C205.813 64.8942 206.237 65.1771 206.591 65.5306ZM226.178 68.5711C226.39 67.6519 226.107 66.6619 225.471 66.0255C225.117 65.672 224.693 65.3891 224.127 65.2477L223.067 65.0356C221.582 64.682 220.097 65.6013 219.814 67.1569L216.561 82.289C216.42 82.9961 216.561 83.7032 216.915 84.3396C217.268 84.976 217.975 85.4003 218.682 85.5417L219.743 85.7538C221.228 86.1074 222.713 85.1881 222.996 83.6325L226.178 68.5711ZM203.197 61.4293C202.49 61.5708 201.924 61.2879 201.5 60.5808C201.429 60.5101 196.267 51.1056 195.914 49.1964C194.994 45.0245 204.258 39.4383 208.571 38.0948C212.106 36.9635 222.218 33.4986 224.198 32.7915C224.764 32.6501 228.37 30.1752 228.37 30.1752C229.218 29.8924 236.714 34.135 239.33 36.7513C243.997 41.4182 245.835 46.6508 246.401 48.7721C246.401 48.9136 246.401 49.055 246.33 49.1257L243.643 51.3884C243.431 51.6006 243.29 51.742 243.219 51.9541L237.209 68.1469L237.138 68.2176L227.521 79.107C227.38 79.2484 226.956 79.2484 226.956 78.8242L229.006 69.1368C229.289 67.7226 229.006 66.167 228.228 64.9649C227.38 63.6921 226.107 62.8436 224.693 62.5607L223.632 62.3486C222.218 62.0657 220.733 62.2779 219.46 63.1264C219.39 63.1971 219.177 63.2678 219.107 63.0557C218.895 62.7021 218.612 62.4193 218.329 62.1365C217.551 61.3586 216.632 60.8637 215.571 60.6515C215.571 60.6515 212.248 60.0151 210.339 61.2172C209.561 61.7122 208.995 62.2779 208.571 63.1264C208.429 63.4092 208.147 63.4092 208.076 63.3385C207.899 63.2325 207.775 63.1441 207.652 63.0557C207.528 62.9673 207.404 62.8789 207.227 62.7728C206.853 62.5232 207.084 62.3286 207.193 62.2378C207.207 62.2257 207.219 62.2155 207.227 62.2072C208.712 60.7222 209.49 58.8131 209.278 56.7624C209.207 55.9846 208.288 51.247 208.288 51.247C208.288 51.1056 208.429 50.9642 208.642 50.8935L210.197 49.9035C210.268 49.8328 210.409 49.8328 210.48 49.9035C213.167 51.0349 222.43 54.3583 228.653 49.2671C228.936 48.9843 229.077 48.7014 229.148 48.3479C229.218 47.9943 229.148 47.6408 228.865 47.3579C228.37 46.7215 227.521 46.7215 226.956 47.1458C221.087 52.0248 210.975 47.1458 210.904 47.0751C210.48 46.9337 209.985 46.8629 209.561 47.1458L206.025 49.2671C205.601 49.5499 205.318 50.1156 205.46 50.6813L206.662 57.116C206.803 59.0959 205.389 60.7929 203.197 61.4293Z" fill="url(#paint1_linear)"/>
<defs>
<linearGradient id="paint0_linear" x1="102.335" y1="86" x2="102.335" y2="236.5" gradientUnits="userSpaceOnUse">
<stop stop-color="#A8C9F2"/>
<stop offset="1" stop-color="#5E9EED"/>
</linearGradient>
<linearGradient id="paint1_linear" x1="183.184" y1="91.7626" x2="238.763" y2="36.184" gradientUnits="userSpaceOnUse">
<stop stop-color="#ECBDC7"/>
<stop offset="1" stop-color="#FFEACF"/>
</linearGradient>
</defs>
</svg>
