<svg width="256" height="256" viewBox="0 0 256 256" fill="none" xmlns="http://www.w3.org/2000/svg">
<path fill-rule="evenodd" clip-rule="evenodd" d="M172.708 200.218C171.677 200.238 170.574 200.49 169.443 201.033L146.434 212.091C146.005 209.546 143.639 207.585 140.864 207.675L128.345 208.047C125.083 208.046 122.612 207.26 119.7 206.418C116.786 205.576 113.459 204.698 108.78 204.698C104.601 204.698 98.3927 206.197 93.9306 207.866V203.489C93.9306 203.18 93.8081 202.884 93.59 202.666C93.372 202.448 93.0762 202.326 92.7679 202.326H80.1625C79.8541 202.326 79.5584 202.448 79.3403 202.666C79.1222 202.884 78.9997 203.18 78.9997 203.489V238.084C78.9997 238.392 79.1222 238.688 79.3403 238.906C79.5584 239.124 79.8541 239.247 80.1625 239.247H92.7679C93.0762 239.247 93.372 239.124 93.59 238.906C93.8081 238.688 93.9306 238.392 93.9306 238.084V234.151C110.1 231.008 119.51 235.862 133.305 235.851H133.307C135.667 235.851 138.673 234.561 142.358 232.649C146.044 230.737 150.303 228.146 154.616 225.36C163.243 219.79 172.093 213.435 176.739 210.289C178.059 209.395 178.805 208.051 178.964 206.689C179.123 205.327 178.741 203.954 177.961 202.818C176.889 201.255 174.975 200.175 172.708 200.219L172.708 200.218Z" fill="url(#paint0_linear)"/>
<path d="M101.8 26L157.67 77.5924V176.233L47 176.5V77.8597L101.8 26Z" fill="url(#paint1_linear)"/>
<path d="M152.323 26H101.8L157.67 77.5924H207.925L152.323 26Z" fill="#B7D1F0"/>
<rect x="157.67" y="77.5924" width="50.2558" height="98.9076" fill="#A4C8F5"/>
<rect x="65.1776" y="77.5924" width="20.8508" height="45.444" fill="#5C98E1"/>
<rect x="67.8508" y="77.5924" width="18.1776" height="45.444" fill="#FFE1BA"/>
<path d="M67.8508 77.5924H86.0284L67.8508 123.036V77.5924Z" fill="#FFEACF"/>
<rect x="112.226" y="77.5924" width="18.1776" height="45.444" fill="#5C98E1"/>
<rect x="114.899" y="77.5924" width="18.1776" height="45.444" fill="#FFE1BA"/>
<path d="M114.899 77.5924H133.076L114.899 123.036V77.5924Z" fill="#FFEACF"/>
<rect x="65.1776" y="131.056" width="20.8508" height="45.444" fill="#5C98E1"/>
<rect x="67.8508" y="131.056" width="18.1776" height="45.444" fill="#FFE1BA"/>
<path d="M67.8508 131.056H86.0284L67.8508 176.5V131.056Z" fill="#FFEACF"/>
<rect x="112.226" y="131.056" width="18.1776" height="45.444" fill="#5C98E1"/>
<rect x="114.899" y="131.056" width="18.1776" height="45.444" fill="#FFE1BA"/>
<path d="M114.899 131.056H133.076L114.899 176.5V131.056Z" fill="#FFEACF"/>
<circle cx="101.533" cy="54.0684" r="8.01954" fill="#5C98E1"/>
<circle cx="103.137" cy="54.0683" r="6.41563" fill="#FFE0BA"/>
<circle cx="105.008" cy="53.8011" r="4.5444" fill="#FFEACF"/>
<rect x="183.332" y="103.255" width="8.55417" height="12.8313" fill="#5C98E1"/>
<rect x="182.263" y="103.255" width="8.55417" height="12.8313" fill="#FFE0BA"/>
<path d="M184.936 103.255H190.817V116.086L184.936 103.255Z" fill="#FFEACF"/>
<rect x="183.332" y="121.432" width="8.55417" height="12.8313" fill="#5C98E1"/>
<rect x="182.263" y="121.432" width="8.55417" height="12.8313" fill="#FFE0BA"/>
<path d="M184.936 121.432H190.817V134.264L184.936 121.432Z" fill="#FFEACF"/>
<rect x="183.332" y="139.61" width="8.55417" height="12.8313" fill="#5C98E1"/>
<rect x="182.263" y="139.61" width="8.55417" height="12.8313" fill="#FFE0BA"/>
<path d="M184.936 139.61H190.817V152.441L184.936 139.61Z" fill="#FFEACF"/>
<defs>
<linearGradient id="paint0_linear" x1="79" y1="219.732" x2="185.976" y2="219.732" gradientUnits="userSpaceOnUse">
<stop stop-color="#FFEACF"/>
<stop offset="1" stop-color="#EDBEC8"/>
</linearGradient>
<linearGradient id="paint1_linear" x1="102.335" y1="26" x2="102.335" y2="176.5" gradientUnits="userSpaceOnUse">
<stop stop-color="#A8C9F2"/>
<stop offset="1" stop-color="#5E9EED"/>
</linearGradient>
</defs>
</svg>
