<svg width="256" height="256" viewBox="0 0 256 256" fill="none" xmlns="http://www.w3.org/2000/svg">
<path d="M101.8 77L157.67 128.592V227.233L47 227.5V128.86L101.8 77Z" fill="url(#paint0_linear)"/>
<path d="M152.323 77H101.8L157.67 128.592H207.925L152.323 77Z" fill="#B7D1F0"/>
<rect x="157.67" y="128.592" width="50.2558" height="98.9076" fill="#A4C8F5"/>
<rect x="65.1776" y="128.592" width="20.8508" height="45.444" fill="#5C98E1"/>
<rect x="67.8508" y="128.592" width="18.1776" height="45.444" fill="#FFE1BA"/>
<path d="M67.8508 128.592H86.0284L67.8508 174.036V128.592Z" fill="#FFEACF"/>
<rect x="112.226" y="128.592" width="18.1776" height="45.444" fill="#5C98E1"/>
<rect x="114.899" y="128.592" width="18.1776" height="45.444" fill="#FFE1BA"/>
<path d="M114.899 128.592H133.076L114.899 174.036V128.592Z" fill="#FFEACF"/>
<rect x="65.1776" y="182.056" width="20.8508" height="45.444" fill="#5C98E1"/>
<rect x="67.8508" y="182.056" width="18.1776" height="45.444" fill="#FFE1BA"/>
<path d="M67.8508 182.056H86.0284L67.8508 227.5V182.056Z" fill="#FFEACF"/>
<rect x="112.226" y="182.056" width="18.1776" height="45.444" fill="#5C98E1"/>
<rect x="114.899" y="182.056" width="18.1776" height="45.444" fill="#FFE1BA"/>
<path d="M114.899 182.056H133.076L114.899 227.5V182.056Z" fill="#FFEACF"/>
<circle cx="101.533" cy="105.068" r="8.01954" fill="#5C98E1"/>
<circle cx="103.137" cy="105.068" r="6.41563" fill="#FFE0BA"/>
<circle cx="105.008" cy="104.801" r="4.5444" fill="#FFEACF"/>
<rect x="183.332" y="154.255" width="8.55417" height="12.8313" fill="#5C98E1"/>
<rect x="182.263" y="154.255" width="8.55417" height="12.8313" fill="#FFE0BA"/>
<path d="M184.936 154.255H190.817V167.086L184.936 154.255Z" fill="#FFEACF"/>
<rect x="183.332" y="172.432" width="8.55417" height="12.8313" fill="#5C98E1"/>
<rect x="182.263" y="172.432" width="8.55417" height="12.8313" fill="#FFE0BA"/>
<path d="M184.936 172.432H190.817V185.264L184.936 172.432Z" fill="#FFEACF"/>
<rect x="183.332" y="190.61" width="8.55417" height="12.8313" fill="#5C98E1"/>
<rect x="182.263" y="190.61" width="8.55417" height="12.8313" fill="#FFE0BA"/>
<path d="M184.936 190.61H190.817V203.441L184.936 190.61Z" fill="#FFEACF"/>
<path fill-rule="evenodd" clip-rule="evenodd" d="M214.89 86.5135L213.768 87.6636C215.953 89.7952 216.054 93.3728 213.867 95.6155C211.735 97.8008 208.1 97.846 205.915 95.7145L172.561 63.1807C170.376 61.0492 170.331 57.414 172.462 55.2288C174.65 52.9861 178.229 52.9984 180.414 55.1299L181.536 53.9798L191.521 43.7437C195.559 39.6032 200.982 37.1498 206.717 36.9081C211.202 36.6818 215.534 37.8777 219.311 40.103C219.423 39.988 219.535 39.8446 219.647 39.7012C219.759 39.5578 219.871 39.4144 219.983 39.2994C222.283 36.9416 226.145 36.8936 228.503 39.1934C230.861 41.4932 230.909 45.3555 228.609 47.7133C228.328 48.0008 228.104 48.2308 227.822 48.4048C228.866 50.096 229.74 51.8462 230.274 53.7142C225.725 53.3164 221.085 54.8511 217.664 58.359C211.606 64.5696 211.729 74.4527 217.939 80.5107C218.399 80.9595 218.973 81.4068 219.489 81.798L214.89 86.5135ZM179.561 77.8637C180.122 77.2887 180.854 76.7683 181.531 76.419L192.457 87.0766C192.125 87.7625 191.623 88.5072 191.062 89.0823C187.977 92.2451 182.865 92.3087 179.702 89.2236C176.539 86.1385 176.476 81.0266 179.561 77.8637Z" fill="url(#paint1_linear)"/>
<path d="M220.183 78.2106C225.106 83.0123 232.989 82.9143 237.791 77.9915C242.593 73.0687 242.494 65.1855 237.572 60.3837C232.649 55.5819 224.766 55.68 219.964 60.6028C215.162 65.5255 215.26 73.4088 220.183 78.2106Z" fill="#5C81B4"/>
<defs>
<linearGradient id="paint0_linear" x1="102.335" y1="77" x2="102.335" y2="227.5" gradientUnits="userSpaceOnUse">
<stop stop-color="#A8C9F2"/>
<stop offset="1" stop-color="#5E9EED"/>
</linearGradient>
<linearGradient id="paint1_linear" x1="228.503" y1="39.1934" x2="179.702" y2="89.2236" gradientUnits="userSpaceOnUse">
<stop stop-color="#EFC3C9"/>
<stop offset="1" stop-color="#FFEACF"/>
</linearGradient>
</defs>
</svg>
